<svg xmlns="http://www.w3.org/2000/svg" width="161.383" height="19.513" viewBox="0 0 161.383 19.513"><path d="M48.892,46.4H37.764V43.628H48.892c2.795,0,4.179-1.385,4.179-4.179s-1.385-4.179-4.179-4.179H39.149c-2.795,0-4.179,1.385-4.179,4.179V51.961H32.2V39.449c0-4.641,2.308-6.949,6.949-6.949h9.743c4.641,0,6.949,2.308,6.949,6.949C55.866,44.09,53.533,46.4,48.892,46.4Z" transform="translate(-32.2 -32.5)" fill="#ec1313"/><path d="M135.3,32.5h2.795V51.987H135.3Z" transform="translate(-108.864 -32.5)" fill="#ec1313"/><path d="M173.692,32.5c4.641,0,6.949,2.308,6.949,6.949h-2.795c0-2.795-1.385-4.179-4.179-4.179h-9.743c-2.795,0-4.179,1.385-4.179,4.179v5.564c0,2.795,1.385,4.179,4.179,4.179h9.743c2.795,0,4.179-1.385,4.179-4.179h2.795c0,4.641-2.308,6.949-6.949,6.949h-9.743c-4.641,0-6.949-2.308-6.949-6.949V39.449c0-4.641,2.308-6.949,6.949-6.949Z" transform="translate(-125 -32.5)" fill="#ec1313"/><path d="M260.1,32.5h2.795V51.987H260.1Zm16.692,13.9H265.664V43.628h11.128c2.795,0,4.179-1.385,4.179-4.179V32.5h2.795v6.949c0,2.564-.718,4.41-2.128,5.564,1.41,1.154,2.128,3,2.128,5.564v1.385h-2.795V50.577C280.972,47.782,279.587,46.4,276.792,46.4Z" transform="translate(-201.665 -32.5)" fill="#ec1313"/><path d="M379.892,32.5c4.641,0,6.949,2.308,6.949,6.949h-2.795c0-2.795-1.385-4.179-4.179-4.179h-9.743c-2.795,0-4.179,1.385-4.179,4.179v5.564c0,2.795,1.385,4.179,4.179,4.179h9.743c2.795,0,4.179-1.385,4.179-4.179h2.795c0,4.641-2.308,6.949-6.949,6.949h-9.743c-4.641,0-6.949-2.308-6.949-6.949V39.449c0-4.641,2.308-6.949,6.949-6.949Z" transform="translate(-278.329 -32.5)" fill="#ec1313"/><path d="M473.249,32.5h16.692v2.795H473.249c-2.795,0-4.179,1.385-4.179,4.179v5.564c0,2.795,1.385,4.179,4.179,4.179h16.692v2.795H473.249c-4.641,0-6.949-2.308-6.949-6.949V39.449C466.3,34.808,468.608,32.5,473.249,32.5Zm16.692,8.333v2.795H471.864V40.833Z" transform="translate(-354.994 -32.5)" fill="#ec1313"/><path d="M576.349,49.192h16.692v2.795H576.349c-4.641,0-6.949-2.308-6.949-6.949V32.5h2.795V45.013C572.169,47.782,573.579,49.192,576.349,49.192Z" transform="translate(-431.658 -32.5)" fill="#ec1313"/></svg>